# xmcd CD database file
#
# Track frame offsets:
#	150
#	24902
#	41755
#	69625
#	90615
#	117615
#	138765
#	160532
#
# Disc length: 2470 seconds
#
# Revision: 0
# Processed by: cddbd v1.4PL0 Copyright (c) Steve Scherf et al.
# Submitted via: CDex 1.51
#
DISCID=6109a408
DTITLE=Jorge Laboy and 3 A.M. - Jorge Laboy and 3 A.M.
DYEAR=1988
DGENRE=Jazz
TTITLE0=Alas de Luz
TTITLE1=Compartiendo
TTITLE2=Icacos
TTITLE3=Loco de Contento
TTITLE4=3 A.M.
TTITLE5=Amanecer (Renacer)
TTITLE6=Que Bueno Esta Esto
TTITLE7=Guitarras Para Pensar
EXTD=YEAR: 1988
EXTT0=
EXTT1=
EXTT2=
EXTT3=
EXTT4=
EXTT5=
EXTT6=
EXTT7=
PLAYORDER=
